<svg width="18" height="23" viewBox="0 0 18 23" fill="none" xmlns="http://www.w3.org/2000/svg">
<path d="M12.7284 16.668V17.4465C12.7284 17.5519 12.7668 17.6432 12.8439 17.7202C12.9209 17.7973 13.0122 17.8358 13.1176 17.8358H13.8961C14.0015 17.8358 14.0928 17.7973 14.1698 17.7202C14.2468 17.6432 14.2854 17.5519 14.2854 17.4465V16.668C14.2854 16.5626 14.2468 16.4713 14.1698 16.3943C14.0928 16.3172 14.0015 16.2787 13.8961 16.2787H13.1176C13.0122 16.2787 12.9209 16.3172 12.8439 16.3943C12.7668 16.4713 12.7284 16.5626 12.7284 16.668ZM12.7284 13.5539V14.3325C12.7284 14.4379 12.7668 14.5291 12.8439 14.6062C12.9209 14.6832 13.0122 14.7217 13.1176 14.7217H13.8961C14.0015 14.7217 14.0928 14.6832 14.1698 14.6062C14.2468 14.5291 14.2854 14.4379 14.2854 14.3325V13.5539C14.2854 13.4485 14.2468 13.3573 14.1698 13.2802C14.0928 13.2032 14.0015 13.1647 13.8961 13.1647H13.1176C13.0122 13.1647 12.9209 13.2032 12.8439 13.2802C12.7668 13.3573 12.7284 13.4485 12.7284 13.5539ZM9.61426 13.5539V14.3325C9.61426 14.4379 9.6528 14.5291 9.72988 14.6062C9.80688 14.6832 9.89808 14.7217 10.0036 14.7217H10.782C10.8875 14.7217 10.9788 14.6832 11.0557 14.6062C11.1328 14.5291 11.1713 14.4379 11.1713 14.3325V13.5539C11.1713 13.4485 11.1328 13.3573 11.0557 13.2802C10.9788 13.2032 10.8875 13.1647 10.782 13.1647H10.0036C9.89808 13.1647 9.80688 13.2032 9.72988 13.2802C9.6528 13.3573 9.61426 13.4485 9.61426 13.5539ZM12.7284 10.4399V11.2184C12.7284 11.3239 12.7668 11.4151 12.8439 11.4921C12.9209 11.5691 13.0122 11.6077 13.1176 11.6077H13.8961C14.0015 11.6077 14.0928 11.5691 14.1698 11.4921C14.2468 11.4151 14.2854 11.3239 14.2854 11.2184V10.4399C14.2854 10.3345 14.2468 10.2433 14.1698 10.1662C14.0928 10.0892 14.0015 10.0507 13.8961 10.0507H13.1176C13.0122 10.0507 12.9209 10.0892 12.8439 10.1662C12.7668 10.2433 12.7284 10.3345 12.7284 10.4399ZM3.38622 16.668V17.4465C3.38622 17.5519 3.42467 17.6432 3.50175 17.7202C3.57882 17.7973 3.67003 17.8358 3.77545 17.8358H4.554C4.65941 17.8358 4.75062 17.7973 4.8277 17.7202C4.90469 17.6432 4.94323 17.5519 4.94323 17.4465V16.668C4.94323 16.5626 4.90469 16.4713 4.8277 16.3943C4.75062 16.3172 4.65941 16.2787 4.554 16.2787H3.77545C3.67003 16.2787 3.57882 16.3172 3.50175 16.3943C3.42467 16.4713 3.38622 16.5626 3.38622 16.668ZM6.50024 13.5539V14.3325C6.50024 14.4379 6.53878 14.5291 6.61577 14.6062C6.69285 14.6832 6.78405 14.7217 6.88947 14.7217H7.66802C7.77344 14.7217 7.86464 14.6832 7.94172 14.6062C8.01871 14.5291 8.05725 14.4379 8.05725 14.3325V13.5539C8.05725 13.4485 8.01871 13.3573 7.94172 13.2802C7.86464 13.2032 7.77344 13.1647 7.66802 13.1647H6.88947C6.78405 13.1647 6.69285 13.2032 6.61577 13.2802C6.53878 13.3573 6.50024 13.4485 6.50024 13.5539ZM9.61426 10.4399V11.2184C9.61426 11.3239 9.6528 11.4151 9.72988 11.4921C9.80688 11.5691 9.89808 11.6077 10.0036 11.6077H10.782C10.8875 11.6077 10.9788 11.5691 11.0557 11.4921C11.1328 11.4151 11.1713 11.3239 11.1713 11.2184V10.4399C11.1713 10.3345 11.1328 10.2433 11.0557 10.1662C10.9788 10.0892 10.8875 10.0507 10.782 10.0507H10.0036C9.89808 10.0507 9.80688 10.0892 9.72988 10.1662C9.6528 10.2433 9.61426 10.3345 9.61426 10.4399ZM3.38622 13.5539V14.3325C3.38622 14.4379 3.42467 14.5291 3.50175 14.6062C3.57882 14.6832 3.67003 14.7217 3.77545 14.7217H4.554C4.65941 14.7217 4.75062 14.6832 4.8277 14.6062C4.90469 14.5291 4.94323 14.4379 4.94323 14.3325V13.5539C4.94323 13.4485 4.90469 13.3573 4.8277 13.2802C4.75062 13.2032 4.65941 13.1647 4.554 13.1647H3.77545C3.67003 13.1647 3.57882 13.2032 3.50175 13.2802C3.42467 13.3573 3.38622 13.4485 3.38622 13.5539ZM6.50024 10.4399V11.2184C6.50024 11.3239 6.53878 11.4151 6.61577 11.4921C6.69285 11.5691 6.78405 11.6077 6.88947 11.6077H7.66802C7.77344 11.6077 7.86464 11.5691 7.94172 11.4921C8.01871 11.4151 8.05725 11.3239 8.05725 11.2184V10.4399C8.05725 10.3345 8.01871 10.2433 7.94172 10.1662C7.86464 10.0892 7.77344 10.0507 7.66802 10.0507H6.88947C6.78405 10.0507 6.69285 10.0892 6.61577 10.1662C6.53878 10.2433 6.50024 10.3345 6.50024 10.4399ZM3.38622 10.4399V11.2184C3.38622 11.3239 3.42467 11.4151 3.50175 11.4921C3.57882 11.5691 3.67003 11.6077 3.77545 11.6077H4.554C4.65941 11.6077 4.75062 11.5691 4.8277 11.4921C4.90469 11.4151 4.94323 11.3239 4.94323 11.2184V10.4399C4.94323 10.3345 4.90469 10.2433 4.8277 10.1662C4.75062 10.0892 4.65941 10.0507 4.554 10.0507H3.77545C3.67003 10.0507 3.57882 10.0892 3.50175 10.1662C3.42467 10.2433 3.38622 10.3345 3.38622 10.4399ZM6.50024 20.9498H1.8292V6.9366H4.94323V7.32586C4.94323 7.65022 5.05675 7.92593 5.2838 8.15298C5.51086 8.38012 5.78656 8.49365 6.11101 8.49365H11.5606C11.885 8.49365 12.1607 8.38012 12.3877 8.15298C12.6148 7.92593 12.7284 7.65022 12.7284 7.32586V6.9366H15.8424V20.9498H11.1713V18.225C11.1713 18.1196 11.1328 18.0283 11.0557 17.9513C10.9788 17.8743 10.8875 17.8358 10.782 17.8358H6.88947C6.78405 17.8358 6.69285 17.8743 6.61577 17.9513C6.53878 18.0283 6.50024 18.1196 6.50024 18.225V20.9498ZM6.50024 6.54734V2.65477C6.50024 2.54936 6.53878 2.45812 6.61577 2.38108C6.69285 2.30404 6.78405 2.26552 6.88947 2.26552H7.66802C7.77344 2.26552 7.86464 2.30404 7.94172 2.38108C8.01871 2.45812 8.05725 2.54936 8.05725 2.65477V3.82255H9.61426V2.65477C9.61426 2.54936 9.6528 2.45812 9.72988 2.38108C9.80688 2.30404 9.89808 2.26552 10.0036 2.26552H10.782C10.8875 2.26552 10.9788 2.30404 11.0557 2.38108C11.1328 2.45812 11.1713 2.54936 11.1713 2.65477V6.54734C11.1713 6.65277 11.1328 6.744 11.0557 6.82104C10.9788 6.89808 10.8875 6.9366 10.782 6.9366H10.0036C9.89808 6.9366 9.80688 6.89808 9.72988 6.82104C9.6528 6.744 9.61426 6.65277 9.61426 6.54734V5.37957H8.05725V6.54734C8.05725 6.65277 8.01871 6.744 7.94172 6.82104C7.86464 6.89808 7.77344 6.9366 7.66802 6.9366H6.88947C6.78405 6.9366 6.69285 6.89808 6.61577 6.82104C6.53878 6.744 6.50024 6.65277 6.50024 6.54734ZM0.272102 6.15808V21.7283C0.272102 21.9392 0.349182 22.1216 0.503252 22.2757C0.657324 22.4298 0.839819 22.5068 1.05065 22.5068H16.6209C16.8318 22.5068 17.0142 22.4298 17.1683 22.2757C17.3224 22.1216 17.3994 21.9392 17.3994 21.7283V6.15808C17.3994 5.94723 17.3224 5.76477 17.1683 5.61069C17.0142 5.45661 16.8318 5.37957 16.6209 5.37957H12.7284V1.87627C12.7284 1.55188 12.6148 1.27616 12.3877 1.04909C12.1607 0.822031 11.885 0.708496 11.5606 0.708496H6.11101C5.78656 0.708496 5.51086 0.822031 5.2838 1.04909C5.05675 1.27616 4.94323 1.55188 4.94323 1.87627V5.37957H1.05065C0.839819 5.37957 0.657324 5.45661 0.503252 5.61069C0.349182 5.76477 0.272102 5.94723 0.272102 6.15808Z" fill="white"/>
</svg>
