<svg width="15" height="13" viewBox="0 0 15 13" fill="none" xmlns="http://www.w3.org/2000/svg">
<path d="M1.3125 7.71875L6.3125 12.7188C6.5 12.9062 6.75 13 7 13C7.28125 13 7.53125 12.9062 7.71875 12.7188C8.125 12.3438 8.125 11.6875 7.71875 11.3125L4.4375 8H14C14.5625 8 15 7.5625 15 7C15 6.46875 14.5625 6 14 6H4.4375L7.71875 2.71875C8.125 2.34375 8.125 1.6875 7.71875 1.3125C7.34375 0.90625 6.6875 0.90625 6.3125 1.3125L1.3125 6.3125C0.90625 6.6875 0.90625 7.34375 1.3125 7.71875Z" fill="white"/>
</svg>
